<mxfile host="app.diagrams.net" agent="Mozilla/5.0 (Macintosh; Intel Mac OS X 10_15_7) AppleWebKit/605.1.15 (KHTML, like Gecko) Version/18.6 Safari/605.1.15" version="28.2.5">
  <diagram name="Page-1" id="ITgCniB9UMU5Rn8mjQ72">
    <mxGraphModel dx="1810" dy="558" grid="1" gridSize="10" guides="1" tooltips="1" connect="1" arrows="1" fold="1" page="1" pageScale="1" pageWidth="827" pageHeight="1169" math="0" shadow="0">
      <root>
        <mxCell id="0" />
        <mxCell id="1" parent="0" />
        <mxCell id="_XlbBcoi8CTmFbGkkOP7-6" style="rounded=0;orthogonalLoop=1;jettySize=auto;html=1;entryX=0;entryY=0.5;entryDx=0;entryDy=0;" edge="1" parent="1" target="_XlbBcoi8CTmFbGkkOP7-22">
          <mxGeometry relative="1" as="geometry">
            <mxPoint x="-470" y="355" as="sourcePoint" />
            <mxPoint x="160" y="360" as="targetPoint" />
          </mxGeometry>
        </mxCell>
        <mxCell id="_XlbBcoi8CTmFbGkkOP7-1" value="User" style="shape=umlActor;verticalLabelPosition=bottom;verticalAlign=top;html=1;outlineConnect=0;" vertex="1" parent="1">
          <mxGeometry x="-510" y="325" width="30" height="60" as="geometry" />
        </mxCell>
        <mxCell id="_XlbBcoi8CTmFbGkkOP7-9" style="rounded=0;orthogonalLoop=1;jettySize=auto;html=1;endArrow=classic;endFill=1;strokeColor=default;startArrow=none;startFill=0;exitX=0.5;exitY=1;exitDx=0;exitDy=0;entryX=0.5;entryY=0;entryDx=0;entryDy=0;" edge="1" parent="1" source="_XlbBcoi8CTmFbGkkOP7-5" target="_XlbBcoi8CTmFbGkkOP7-26">
          <mxGeometry relative="1" as="geometry">
            <mxPoint x="420" y="385" as="sourcePoint" />
            <mxPoint x="410" y="510" as="targetPoint" />
          </mxGeometry>
        </mxCell>
        <mxCell id="_XlbBcoi8CTmFbGkkOP7-5" value="Encoder" style="rounded=1;whiteSpace=wrap;html=1;" vertex="1" parent="1">
          <mxGeometry x="360" y="330" width="100" height="50" as="geometry" />
        </mxCell>
        <mxCell id="_XlbBcoi8CTmFbGkkOP7-7" value="Natural Language Query" style="text;html=1;align=center;verticalAlign=middle;resizable=0;points=[];autosize=1;strokeColor=none;fillColor=none;" vertex="1" parent="1">
          <mxGeometry x="-370" y="320" width="150" height="30" as="geometry" />
        </mxCell>
        <mxCell id="_XlbBcoi8CTmFbGkkOP7-8" value="Vector DB" style="shape=datastore;whiteSpace=wrap;html=1;" vertex="1" parent="1">
          <mxGeometry x="380" y="720" width="60" height="60" as="geometry" />
        </mxCell>
        <mxCell id="_XlbBcoi8CTmFbGkkOP7-10" value="Encoded Query" style="text;html=1;align=center;verticalAlign=middle;resizable=0;points=[];autosize=1;strokeColor=none;fillColor=none;rotation=0;" vertex="1" parent="1">
          <mxGeometry x="410" y="430" width="110" height="30" as="geometry" />
        </mxCell>
        <mxCell id="_XlbBcoi8CTmFbGkkOP7-19" value="Refined Embedding" style="text;html=1;align=center;verticalAlign=middle;resizable=0;points=[];autosize=1;strokeColor=none;fillColor=none;rotation=0;" vertex="1" parent="1">
          <mxGeometry x="410.00107155055326" y="609.996284290195" width="130" height="30" as="geometry" />
        </mxCell>
        <mxCell id="_XlbBcoi8CTmFbGkkOP7-39" style="edgeStyle=orthogonalEdgeStyle;rounded=0;orthogonalLoop=1;jettySize=auto;html=1;entryX=0.5;entryY=1;entryDx=0;entryDy=0;exitX=0.316;exitY=0;exitDx=0;exitDy=0;exitPerimeter=0;" edge="1" parent="1" source="_XlbBcoi8CTmFbGkkOP7-21" target="_XlbBcoi8CTmFbGkkOP7-38">
          <mxGeometry relative="1" as="geometry" />
        </mxCell>
        <mxCell id="_XlbBcoi8CTmFbGkkOP7-21" value="LLM Core&amp;nbsp;" style="rounded=0;whiteSpace=wrap;html=1;" vertex="1" parent="1">
          <mxGeometry x="-180" y="730" width="190" height="110" as="geometry" />
        </mxCell>
        <mxCell id="_XlbBcoi8CTmFbGkkOP7-23" style="edgeStyle=orthogonalEdgeStyle;rounded=0;orthogonalLoop=1;jettySize=auto;html=1;entryX=0;entryY=0.5;entryDx=0;entryDy=0;" edge="1" parent="1" source="_XlbBcoi8CTmFbGkkOP7-22" target="_XlbBcoi8CTmFbGkkOP7-5">
          <mxGeometry relative="1" as="geometry" />
        </mxCell>
        <mxCell id="_XlbBcoi8CTmFbGkkOP7-22" value="&lt;p style=&quot;text-align: start;&quot; class=&quot;p1&quot;&gt;&lt;span class=&quot;s1&quot;&gt;&lt;/span&gt;&lt;/p&gt;&lt;h3 style=&quot;&quot;&gt;&lt;span style=&quot;font-weight: normal;&quot;&gt;&lt;font style=&quot;font-size: 12px;&quot;&gt;Natural Language Refiner&lt;/font&gt;&lt;/span&gt;&lt;/h3&gt;&lt;p style=&quot;text-align: start;&quot;&gt;&lt;/p&gt;" style="rounded=1;whiteSpace=wrap;html=1;" vertex="1" parent="1">
          <mxGeometry x="-80" y="330" width="100" height="50" as="geometry" />
        </mxCell>
        <mxCell id="_XlbBcoi8CTmFbGkkOP7-24" value="Refined Query" style="text;html=1;align=center;verticalAlign=middle;resizable=0;points=[];autosize=1;strokeColor=none;fillColor=none;rotation=0;" vertex="1" parent="1">
          <mxGeometry x="225.00107155055326" y="329.99628429019504" width="100" height="30" as="geometry" />
        </mxCell>
        <mxCell id="_XlbBcoi8CTmFbGkkOP7-27" style="edgeStyle=orthogonalEdgeStyle;rounded=0;orthogonalLoop=1;jettySize=auto;html=1;entryX=0.5;entryY=0;entryDx=0;entryDy=0;" edge="1" parent="1" source="_XlbBcoi8CTmFbGkkOP7-26" target="_XlbBcoi8CTmFbGkkOP7-8">
          <mxGeometry relative="1" as="geometry" />
        </mxCell>
        <mxCell id="_XlbBcoi8CTmFbGkkOP7-26" value="Vector Query Refiner" style="rounded=1;whiteSpace=wrap;html=1;" vertex="1" parent="1">
          <mxGeometry x="360" y="510" width="100" height="50" as="geometry" />
        </mxCell>
        <mxCell id="_XlbBcoi8CTmFbGkkOP7-28" value="&lt;p style=&quot;text-align: start; white-space: normal;&quot; class=&quot;p1&quot;&gt;&lt;span class=&quot;s1&quot;&gt;&lt;/span&gt;&lt;/p&gt;&lt;span style=&quot;text-align: start; white-space: normal;&quot;&gt;Pass Validated Context&lt;/span&gt;&lt;br&gt;&lt;p style=&quot;text-align: start; white-space: normal;&quot;&gt;&lt;/p&gt;" style="text;html=1;align=center;verticalAlign=middle;resizable=0;points=[];autosize=1;strokeColor=none;fillColor=none;rotation=0;" vertex="1" parent="1">
          <mxGeometry x="-9.998928449446737" y="624.996284290195" width="150" height="50" as="geometry" />
        </mxCell>
        <mxCell id="_XlbBcoi8CTmFbGkkOP7-34" style="edgeStyle=orthogonalEdgeStyle;rounded=0;orthogonalLoop=1;jettySize=auto;html=1;entryX=0;entryY=0.5;entryDx=0;entryDy=0;dashed=1;" edge="1" parent="1" source="_XlbBcoi8CTmFbGkkOP7-29" target="_XlbBcoi8CTmFbGkkOP7-26">
          <mxGeometry relative="1" as="geometry" />
        </mxCell>
        <mxCell id="_XlbBcoi8CTmFbGkkOP7-35" style="edgeStyle=orthogonalEdgeStyle;rounded=0;orthogonalLoop=1;jettySize=auto;html=1;entryX=1;entryY=0.5;entryDx=0;entryDy=0;" edge="1" parent="1" source="_XlbBcoi8CTmFbGkkOP7-29" target="_XlbBcoi8CTmFbGkkOP7-21">
          <mxGeometry relative="1" as="geometry" />
        </mxCell>
        <mxCell id="_XlbBcoi8CTmFbGkkOP7-29" value="Verifier&lt;div&gt;( Similarity &amp;nbsp;/ Confidence Check )&amp;nbsp;&lt;/div&gt;" style="rounded=1;whiteSpace=wrap;html=1;" vertex="1" parent="1">
          <mxGeometry y="510" width="190" height="50" as="geometry" />
        </mxCell>
        <mxCell id="_XlbBcoi8CTmFbGkkOP7-31" value="" style="group" vertex="1" connectable="0" parent="1">
          <mxGeometry x="245" y="610" width="60" height="80" as="geometry" />
        </mxCell>
        <mxCell id="_XlbBcoi8CTmFbGkkOP7-16" value="" style="group" vertex="1" connectable="0" parent="_XlbBcoi8CTmFbGkkOP7-31">
          <mxGeometry width="60" height="80" as="geometry" />
        </mxCell>
        <mxCell id="_XlbBcoi8CTmFbGkkOP7-13" value="" style="whiteSpace=wrap;html=1;shape=mxgraph.basic.document" vertex="1" parent="_XlbBcoi8CTmFbGkkOP7-16">
          <mxGeometry x="15" width="45" height="64" as="geometry" />
        </mxCell>
        <mxCell id="_XlbBcoi8CTmFbGkkOP7-14" value="" style="whiteSpace=wrap;html=1;shape=mxgraph.basic.document" vertex="1" parent="_XlbBcoi8CTmFbGkkOP7-16">
          <mxGeometry x="7.5" y="8" width="45" height="64" as="geometry" />
        </mxCell>
        <mxCell id="_XlbBcoi8CTmFbGkkOP7-15" value="&lt;font style=&quot;font-size: 9px;&quot;&gt;Top-K Retrieved Docs&lt;/font&gt;" style="whiteSpace=wrap;html=1;shape=mxgraph.basic.document" vertex="1" parent="_XlbBcoi8CTmFbGkkOP7-16">
          <mxGeometry y="16" width="45" height="64" as="geometry" />
        </mxCell>
        <mxCell id="_XlbBcoi8CTmFbGkkOP7-32" style="rounded=0;orthogonalLoop=1;jettySize=auto;html=1;entryX=1;entryY=0.5;entryDx=0;entryDy=0;entryPerimeter=0;endArrow=none;endFill=0;" edge="1" parent="1" source="_XlbBcoi8CTmFbGkkOP7-8" target="_XlbBcoi8CTmFbGkkOP7-14">
          <mxGeometry relative="1" as="geometry" />
        </mxCell>
        <mxCell id="_XlbBcoi8CTmFbGkkOP7-33" style="rounded=0;orthogonalLoop=1;jettySize=auto;html=1;entryX=0.815;entryY=1.012;entryDx=0;entryDy=0;exitX=0.021;exitY=0.041;exitDx=0;exitDy=0;exitPerimeter=0;entryPerimeter=0;" edge="1" parent="1" source="_XlbBcoi8CTmFbGkkOP7-14" target="_XlbBcoi8CTmFbGkkOP7-29">
          <mxGeometry relative="1" as="geometry" />
        </mxCell>
        <mxCell id="_XlbBcoi8CTmFbGkkOP7-40" style="edgeStyle=orthogonalEdgeStyle;rounded=0;orthogonalLoop=1;jettySize=auto;html=1;exitX=0.5;exitY=0;exitDx=0;exitDy=0;" edge="1" parent="1" source="_XlbBcoi8CTmFbGkkOP7-38">
          <mxGeometry relative="1" as="geometry">
            <mxPoint x="-470" y="370" as="targetPoint" />
          </mxGeometry>
        </mxCell>
        <mxCell id="_XlbBcoi8CTmFbGkkOP7-38" value="Decoder" style="rounded=1;whiteSpace=wrap;html=1;" vertex="1" parent="1">
          <mxGeometry x="-170" y="585" width="100" height="50" as="geometry" />
        </mxCell>
        <mxCell id="_XlbBcoi8CTmFbGkkOP7-41" value="Natural Language Answer" style="text;html=1;align=center;verticalAlign=middle;resizable=0;points=[];autosize=1;strokeColor=none;fillColor=none;rotation=0;" vertex="1" parent="1">
          <mxGeometry x="-390" y="480" width="160" height="30" as="geometry" />
        </mxCell>
        <mxCell id="_XlbBcoi8CTmFbGkkOP7-42" value="&lt;span style=&quot;caret-color: rgb(0, 0, 0); color: rgb(0, 0, 0); font-family: Helvetica; font-size: 12px; font-style: normal; font-variant-caps: normal; font-weight: 400; letter-spacing: normal; text-align: center; text-indent: 0px; text-transform: none; white-space: nowrap; word-spacing: 0px; -webkit-text-stroke-width: 0px; background-color: rgb(236, 236, 236); text-decoration: none; float: none; display: inline !important;&quot;&gt;Refine Embedding /&amp;nbsp;&lt;/span&gt;&lt;div&gt;&lt;span style=&quot;caret-color: rgb(0, 0, 0); color: rgb(0, 0, 0); font-family: Helvetica; font-size: 12px; font-style: normal; font-variant-caps: normal; font-weight: 400; letter-spacing: normal; text-align: center; text-indent: 0px; text-transform: none; white-space: nowrap; word-spacing: 0px; -webkit-text-stroke-width: 0px; background-color: rgb(236, 236, 236); text-decoration: none; float: none; display: inline !important;&quot;&gt;Reformulate Vector&lt;/span&gt;&lt;/div&gt;" style="text;whiteSpace=wrap;html=1;" vertex="1" parent="1">
          <mxGeometry x="240" y="495" width="130" height="40" as="geometry" />
        </mxCell>
        <mxCell id="_XlbBcoi8CTmFbGkkOP7-44" value="&lt;p style=&quot;text-align: start; white-space: normal;&quot; class=&quot;p1&quot;&gt;&lt;span class=&quot;s1&quot;&gt;&lt;/span&gt;&lt;/p&gt;&lt;span style=&quot;text-align: start; white-space: normal;&quot;&gt;Validated Answer&lt;/span&gt;&lt;br&gt;&lt;p style=&quot;text-align: start; white-space: normal;&quot;&gt;&lt;/p&gt;" style="text;html=1;align=center;verticalAlign=middle;resizable=0;points=[];autosize=1;strokeColor=none;fillColor=none;rotation=0;" vertex="1" parent="1">
          <mxGeometry x="-249.99892844944674" y="659.996284290195" width="120" height="50" as="geometry" />
        </mxCell>
        <mxCell id="_XlbBcoi8CTmFbGkkOP7-45" value="" style="rounded=0;whiteSpace=wrap;html=1;fillColor=none;strokeWidth=3;" vertex="1" parent="1">
          <mxGeometry x="-220" y="210" width="830" height="710" as="geometry" />
        </mxCell>
        <mxCell id="_XlbBcoi8CTmFbGkkOP7-47" value="&lt;h1 style=&quot;margin-top: 0px;&quot;&gt;RAG Based System&lt;/h1&gt;" style="text;html=1;whiteSpace=wrap;overflow=hidden;rounded=0;" vertex="1" parent="1">
          <mxGeometry x="-210" y="210" width="260" height="50" as="geometry" />
        </mxCell>
      </root>
    </mxGraphModel>
  </diagram>
</mxfile>
